<svg width="28" height="22" viewBox="0 0 28 22" fill="none" xmlns="http://www.w3.org/2000/svg">
<path d="M23.7037 1.74178C21.9187 0.936775 20.0054 0.341775 18.0046 0.00344186C17.9867 2.10955e-05 17.9683 0.00222556 17.9518 0.00975042C17.9353 0.0172753 17.9215 0.0297482 17.9124 0.0454419C17.6674 0.475942 17.3944 1.03711 17.2031 1.48044C15.081 1.16338 12.9236 1.16338 10.8016 1.48044C10.5885 0.989112 10.3481 0.510037 10.0817 0.0454419C10.0727 0.029555 10.059 0.0167999 10.0426 0.00887868C10.0261 0.000957442 10.0076 -0.00175328 9.98956 0.00110842C7.98989 0.339442 6.07656 0.934442 4.29039 1.74061C4.27503 1.74705 4.262 1.75805 4.25306 1.77211C0.622394 7.10961 -0.372773 12.3153 0.116061 17.4556C0.117421 17.4682 0.121329 17.4804 0.127546 17.4914C0.133764 17.5024 0.142161 17.5121 0.152227 17.5198C2.27135 19.0626 4.63495 20.2379 7.14406 20.9964C7.16155 21.0018 7.18026 21.0018 7.19774 20.9964C7.21523 20.991 7.23067 20.9804 7.24206 20.9661C7.78106 20.2428 8.26173 19.4786 8.67239 18.6759C8.69689 18.6293 8.67356 18.5733 8.62456 18.5546C7.8709 18.2708 7.14066 17.9283 6.44056 17.5303C6.42798 17.5231 6.41738 17.5129 6.40971 17.5006C6.40204 17.4883 6.39754 17.4743 6.39662 17.4599C6.39569 17.4454 6.39837 17.431 6.40441 17.4178C6.41045 17.4046 6.41967 17.3932 6.43123 17.3844C6.57823 17.2759 6.72523 17.1628 6.86523 17.0496C6.87783 17.0394 6.89301 17.033 6.90908 17.0309C6.92514 17.0288 6.94147 17.0313 6.95623 17.0379C11.5377 19.0959 16.4996 19.0959 21.0274 17.0379C21.0422 17.0309 21.0587 17.0281 21.075 17.03C21.0913 17.0318 21.1067 17.0382 21.1196 17.0484C21.2596 17.1628 21.4054 17.2759 21.5536 17.3844C21.5652 17.393 21.5746 17.4043 21.5808 17.4173C21.5871 17.4304 21.59 17.4448 21.5893 17.4592C21.5886 17.4737 21.5843 17.4877 21.5769 17.5001C21.5694 17.5125 21.559 17.5229 21.5466 17.5303C20.8489 17.9316 20.1232 18.2711 19.3614 18.5534C19.3497 18.5577 19.339 18.5644 19.3301 18.5731C19.3212 18.5818 19.3143 18.5923 19.3097 18.6039C19.3052 18.6155 19.3032 18.6279 19.3039 18.6403C19.3045 18.6527 19.3078 18.6649 19.3136 18.6759C19.7336 19.4774 20.2142 20.2404 20.7427 20.9649C20.7537 20.9798 20.769 20.9909 20.7866 20.9968C20.8041 21.0026 20.823 21.0029 20.8407 20.9976C23.3541 20.2412 25.7216 19.0653 27.8431 17.5198C27.8534 17.5125 27.8621 17.5032 27.8685 17.4923C27.875 17.4814 27.879 17.4693 27.8804 17.4568C28.4637 11.5138 26.9027 6.35011 23.7399 1.77444C23.7321 1.75957 23.7193 1.74798 23.7037 1.74178ZM9.35723 14.3254C7.97823 14.3254 6.84073 13.0783 6.84073 11.5488C6.84073 10.0181 7.95606 8.77211 9.35723 8.77211C10.7689 8.77211 11.8959 10.0286 11.8737 11.5488C11.8737 13.0794 10.7584 14.3254 9.35723 14.3254ZM18.6614 14.3254C17.2812 14.3254 16.1449 13.0783 16.1449 11.5488C16.1449 10.0181 17.2591 8.77211 18.6614 8.77211C20.0731 8.77211 21.2001 10.0286 21.1779 11.5488C21.1779 13.0794 20.0742 14.3254 18.6614 14.3254Z" fill="white"/>
</svg>
