<svg width="168" height="49" viewBox="0 0 168 49" fill="none" xmlns="http://www.w3.org/2000/svg">
<path d="M52.6334 11H60.5534V32.72H73.9134V39H52.6334V11ZM89.1377 39.56C86.1777 39.56 83.5111 38.9333 81.1377 37.68C78.7911 36.4267 76.9377 34.6933 75.5777 32.48C74.2444 30.2667 73.5777 27.7733 73.5777 25C73.5777 22.2267 74.2444 19.7333 75.5777 17.52C76.9377 15.3067 78.7911 13.5733 81.1377 12.32C83.5111 11.0667 86.1777 10.44 89.1377 10.44C92.0977 10.44 94.7511 11.0667 97.0978 12.32C99.4711 13.5733 101.324 15.3067 102.658 17.52C104.018 19.7333 104.698 22.2267 104.698 25C104.698 27.7733 104.018 30.2667 102.658 32.48C101.324 34.6933 99.4711 36.4267 97.0978 37.68C94.7511 38.9333 92.0977 39.56 89.1377 39.56ZM89.1377 33C90.5511 33 91.8311 32.6667 92.9778 32C94.1244 31.3333 95.0311 30.4 95.6977 29.2C96.3644 27.9733 96.6978 26.5733 96.6978 25C96.6978 23.4267 96.3644 22.04 95.6977 20.84C95.0311 19.6133 94.1244 18.6667 92.9778 18C91.8311 17.3333 90.5511 17 89.1377 17C87.7244 17 86.4444 17.3333 85.2977 18C84.1511 18.6667 83.2444 19.6133 82.5777 20.84C81.9111 22.04 81.5777 23.4267 81.5777 25C81.5777 26.5733 81.9111 27.9733 82.5777 29.2C83.2444 30.4 84.1511 31.3333 85.2977 32C86.4444 32.6667 87.7244 33 89.1377 33ZM126.006 24.4H133.006V36C131.406 37.1467 129.566 38.0267 127.486 38.64C125.406 39.2533 123.326 39.56 121.246 39.56C118.313 39.56 115.673 38.9467 113.326 37.72C110.979 36.4667 109.139 34.7333 107.806 32.52C106.473 30.3067 105.806 27.8 105.806 25C105.806 22.2 106.473 19.6933 107.806 17.48C109.139 15.2667 110.993 13.5467 113.366 12.32C115.739 11.0667 118.419 10.44 121.406 10.44C124.019 10.44 126.366 10.88 128.446 11.76C130.526 12.64 132.259 13.9067 133.646 15.56L128.606 20.12C126.713 18.04 124.446 17 121.806 17C119.406 17 117.473 17.7333 116.006 19.2C114.539 20.64 113.806 22.5733 113.806 25C113.806 26.5467 114.139 27.9333 114.806 29.16C115.473 30.36 116.406 31.3067 117.606 32C118.806 32.6667 120.179 33 121.726 33C123.246 33 124.673 32.6933 126.006 32.08V24.4ZM150.547 39.56C147.587 39.56 144.92 38.9333 142.547 37.68C140.2 36.4267 138.347 34.6933 136.987 32.48C135.654 30.2667 134.987 27.7733 134.987 25C134.987 22.2267 135.654 19.7333 136.987 17.52C138.347 15.3067 140.2 13.5733 142.547 12.32C144.92 11.0667 147.587 10.44 150.547 10.44C153.507 10.44 156.16 11.0667 158.507 12.32C160.88 13.5733 162.734 15.3067 164.067 17.52C165.427 19.7333 166.107 22.2267 166.107 25C166.107 27.7733 165.427 30.2667 164.067 32.48C162.734 34.6933 160.88 36.4267 158.507 37.68C156.16 38.9333 153.507 39.56 150.547 39.56ZM150.547 33C151.96 33 153.24 32.6667 154.387 32C155.534 31.3333 156.44 30.4 157.107 29.2C157.774 27.9733 158.107 26.5733 158.107 25C158.107 23.4267 157.774 22.04 157.107 20.84C156.44 19.6133 155.534 18.6667 154.387 18C153.24 17.3333 151.96 17 150.547 17C149.134 17 147.854 17.3333 146.707 18C145.56 18.6667 144.654 19.6133 143.987 20.84C143.32 22.04 142.987 23.4267 142.987 25C142.987 26.5733 143.32 27.9733 143.987 29.2C144.654 30.4 145.56 31.3333 146.707 32C147.854 32.6667 149.134 33 150.547 33Z" fill="white"/>
<path d="M33.9438 6.94375L31.6813 9.20625L29.4188 6.94375C29.2254 6.75011 28.9959 6.59649 28.7431 6.49168C28.4904 6.38686 28.2194 6.33291 27.9458 6.33291C27.6722 6.33291 27.4013 6.38686 27.1486 6.49168C26.8958 6.59649 26.6662 6.75011 26.4729 6.94375L23.8708 9.54583C21.9003 8.80275 19.8122 8.42027 17.7063 8.41667C7.94375 8.41667 0 16.3604 0 26.125C0 35.8896 7.94375 43.8333 17.7063 43.8333C27.4688 43.8333 35.4146 35.8896 35.4146 26.125C35.4134 24.2457 35.1102 22.3789 34.5167 20.5958L37.3208 17.7917C37.5145 17.5984 37.6681 17.3688 37.7729 17.116C37.8777 16.8633 37.9317 16.5924 37.9317 16.3188C37.9317 16.0451 37.8777 15.7742 37.7729 15.5215C37.6681 15.2687 37.5145 15.0391 37.3208 14.8458L34.6271 12.1521L36.8979 9.88125C37.375 9.40417 38.6583 8.41667 39.5833 8.41667H41.6667V4.25H39.5833C36.6667 4.25 34.2 6.68125 33.9438 6.94375ZM17.7063 18.8333C15.7583 18.8333 13.9292 19.5917 12.55 20.9687C11.8714 21.6447 11.3336 22.4484 10.9674 23.3334C10.6012 24.2184 10.414 25.1672 10.4167 26.125H6.25C6.25 23.0667 7.43958 20.1896 9.60208 18.025C10.6637 16.957 11.9266 16.1103 13.3177 15.5338C14.7088 14.9573 16.2004 14.6626 17.7063 14.6667V18.8333Z" fill="white"/>
</svg>
